<svg width="14" height="9" viewBox="0 0 14 9" fill="none" xmlns="http://www.w3.org/2000/svg">
<path d="M6.12193 8.25L0.809435 2.9375C0.627143 2.75521 0.535997 2.53385 0.535997 2.27344C0.535997 2.01302 0.627143 1.79167 0.809435 1.60938L1.70787 0.75C1.89016 0.567708 2.11152 0.476562 2.37193 0.476562C2.63235 0.476562 2.85371 0.567708 3.036 0.75L6.786 4.5L10.536 0.75C10.7183 0.567708 10.9396 0.476562 11.2001 0.476562C11.4605 0.476562 11.6818 0.567708 11.8641 0.75L12.7626 1.60938C12.9449 1.79167 13.036 2.01302 13.036 2.27344C13.036 2.53385 12.9449 2.75521 12.7626 2.9375L7.45006 8.25C7.26777 8.43229 7.04641 8.52344 6.786 8.52344C6.52558 8.52344 6.30423 8.43229 6.12193 8.25Z" fill="#333333" fill-opacity="0.5"/>
</svg>
